<svg xmlns="http://www.w3.org/2000/svg" version="1.1" xmlns:xlink="http://www.w3.org/1999/xlink" xmlns:svgjs="http://svgjs.com/svgjs" width="1440" height="560" preserveAspectRatio="none" viewBox="0 0 1440 560"><g mask="url(&quot;#SvgjsMask1030&quot;)" fill="none"><rect width="1440" height="560" x="0" y="0" fill="#0e2a47"></rect><path d="M0,478.999C89.71,471.549,178.669,443.015,247.185,384.628C311.358,329.941,340.174,247.403,365.969,167.132C389.304,94.516,388.473,20.38,388.746,-55.893C389.067,-145.565,426.726,-251.107,367.71,-318.622C308.661,-386.175,196.753,-351.717,110.034,-374.741C26.37,-396.953,-46.445,-460.273,-132.555,-451.442C-225.118,-441.949,-305.752,-387.076,-375.061,-324.992C-451.366,-256.642,-543.791,-181.195,-548.497,-78.862C-553.2,23.409,-446.98,91.826,-398.371,181.93C-353.91,264.345,-350.127,372.018,-275.058,427.998C-198.76,484.894,-94.849,486.876,0,478.999" fill="#0b2239"></path><path d="M1440 1185.774C1558.789 1194.737 1680.839 1153.769 1773.3899999999999 1078.766 1861.745 1007.164 1889.814 890.3879999999999 1933.871 785.543 1976.517 684.056 2058.051 581.191 2026.836 475.626 1995.557 369.845 1849.454 351.08299999999997 1780.049 265.345 1706.8310000000001 174.89800000000002 1721.271 12.111999999999966 1614.381-33.888000000000034 1509.789-78.899 1400.535 21.477999999999952 1291.783 55.22000000000003 1185.037 88.339 1065.367 88.88499999999999 981.298 162.53300000000002 892.05 240.71800000000002 838.051 353.634 817.714 470.529 797.028 589.428 806.77 717.0509999999999 866.589 821.8679999999999 924.273 922.9449999999999 1039.187 968.4200000000001 1137.4479999999999 1030.78 1235.1 1092.7530000000002 1324.671 1177.0720000000001 1440 1185.774" fill="#113255"></path></g><defs><mask id="SvgjsMask1030"><rect width="1440" height="560" fill="#ffffff"></rect></mask></defs></svg>