<svg xmlns="http://www.w3.org/2000/svg" version="1.1" xmlns:xlink="http://www.w3.org/1999/xlink" xmlns:svgjs="http://svgjs.com/svgjs" width="1440" height="560" preserveAspectRatio="none" viewBox="0 0 1440 560"><g mask="url(&quot;#SvgjsMask1026&quot;)" fill="none"><rect width="1440" height="560" x="0" y="0" fill="#0e2a47"></rect><path d="M276 410L275 17" stroke-width="8" stroke="url(#SvgjsLinearGradient1027)" stroke-linecap="round" class="Down"></path><path d="M1391 293L1390 526" stroke-width="8" stroke="url(#SvgjsLinearGradient1028)" stroke-linecap="round" class="Up"></path><path d="M635 370L634 708" stroke-width="8" stroke="url(#SvgjsLinearGradient1027)" stroke-linecap="round" class="Down"></path><path d="M411 143L410 337" stroke-width="8" stroke="url(#SvgjsLinearGradient1027)" stroke-linecap="round" class="Down"></path><path d="M318 430L317 242" stroke-width="8" stroke="url(#SvgjsLinearGradient1027)" stroke-linecap="round" class="Down"></path><path d="M983 492L982 837" stroke-width="8" stroke="url(#SvgjsLinearGradient1028)" stroke-linecap="round" class="Up"></path><path d="M728 280L727 662" stroke-width="8" stroke="url(#SvgjsLinearGradient1028)" stroke-linecap="round" class="Up"></path><path d="M733 238L732 54" stroke-width="8" stroke="url(#SvgjsLinearGradient1027)" stroke-linecap="round" class="Down"></path><path d="M1000 3L999 -146" stroke-width="10" stroke="url(#SvgjsLinearGradient1027)" stroke-linecap="round" class="Down"></path><path d="M1002 437L1001 773" stroke-width="6" stroke="url(#SvgjsLinearGradient1027)" stroke-linecap="round" class="Down"></path><path d="M686 384L685 731" stroke-width="8" stroke="url(#SvgjsLinearGradient1028)" stroke-linecap="round" class="Up"></path><path d="M327 24L326 -118" stroke-width="6" stroke="url(#SvgjsLinearGradient1027)" stroke-linecap="round" class="Down"></path><path d="M971 140L970 -245" stroke-width="10" stroke="url(#SvgjsLinearGradient1028)" stroke-linecap="round" class="Up"></path><path d="M105 75L104 438" stroke-width="6" stroke="url(#SvgjsLinearGradient1027)" stroke-linecap="round" class="Down"></path><path d="M1253 90L1252 -134" stroke-width="6" stroke="url(#SvgjsLinearGradient1028)" stroke-linecap="round" class="Up"></path><path d="M1018 237L1017 -100" stroke-width="6" stroke="url(#SvgjsLinearGradient1027)" stroke-linecap="round" class="Down"></path><path d="M493 310L492 529" stroke-width="10" stroke="url(#SvgjsLinearGradient1027)" stroke-linecap="round" class="Down"></path><path d="M52 408L51 161" stroke-width="10" stroke="url(#SvgjsLinearGradient1028)" stroke-linecap="round" class="Up"></path><path d="M957 406L956 581" stroke-width="10" stroke="url(#SvgjsLinearGradient1028)" stroke-linecap="round" class="Up"></path><path d="M707 299L706 116" stroke-width="6" stroke="url(#SvgjsLinearGradient1027)" stroke-linecap="round" class="Down"></path><path d="M552 89L551 391" stroke-width="8" stroke="url(#SvgjsLinearGradient1027)" stroke-linecap="round" class="Down"></path><path d="M1268 235L1267 576" stroke-width="6" stroke="url(#SvgjsLinearGradient1027)" stroke-linecap="round" class="Down"></path><path d="M489 367L488 105" stroke-width="10" stroke="url(#SvgjsLinearGradient1028)" stroke-linecap="round" class="Up"></path><path d="M140 23L139 -293" stroke-width="6" stroke="url(#SvgjsLinearGradient1028)" stroke-linecap="round" class="Up"></path><path d="M1150 431L1149 65" stroke-width="6" stroke="url(#SvgjsLinearGradient1028)" stroke-linecap="round" class="Up"></path><path d="M1186 189L1185 408" stroke-width="8" stroke="url(#SvgjsLinearGradient1028)" stroke-linecap="round" class="Up"></path><path d="M696 406L695 91" stroke-width="6" stroke="url(#SvgjsLinearGradient1027)" stroke-linecap="round" class="Down"></path><path d="M257 153L256 -222" stroke-width="8" stroke="url(#SvgjsLinearGradient1027)" stroke-linecap="round" class="Down"></path><path d="M1398 152L1397 -145" stroke-width="6" stroke="url(#SvgjsLinearGradient1027)" stroke-linecap="round" class="Down"></path><path d="M1335 20L1334 -143" stroke-width="8" stroke="url(#SvgjsLinearGradient1028)" stroke-linecap="round" class="Up"></path><path d="M1017 186L1016 333" stroke-width="8" stroke="url(#SvgjsLinearGradient1027)" stroke-linecap="round" class="Down"></path><path d="M304 118L303 -251" stroke-width="6" stroke="url(#SvgjsLinearGradient1028)" stroke-linecap="round" class="Up"></path><path d="M1258 99L1257 -168" stroke-width="10" stroke="url(#SvgjsLinearGradient1028)" stroke-linecap="round" class="Up"></path><path d="M85 110L84 -298" stroke-width="6" stroke="url(#SvgjsLinearGradient1028)" stroke-linecap="round" class="Up"></path><path d="M1157 333L1156 474" stroke-width="8" stroke="url(#SvgjsLinearGradient1028)" stroke-linecap="round" class="Up"></path><path d="M78 552L77 164" stroke-width="10" stroke="url(#SvgjsLinearGradient1027)" stroke-linecap="round" class="Down"></path></g><defs><mask id="SvgjsMask1026"><rect width="1440" height="560" fill="#ffffff"></rect></mask><linearGradient x1="0%" y1="0%" x2="0%" y2="100%" id="SvgjsLinearGradient1027"><stop stop-color="rgba(28, 83, 142, 0)" offset="0"></stop><stop stop-color="#1c538e" offset="1"></stop></linearGradient><linearGradient x1="0%" y1="100%" x2="0%" y2="0%" id="SvgjsLinearGradient1028"><stop stop-color="rgba(28, 83, 142, 0)" offset="0"></stop><stop stop-color="#1c538e" offset="1"></stop></linearGradient></defs></svg>